<?xml version="1.0" encoding="UTF-8" standalone="no"?>
<!-- Created with Inkscape (http://www.inkscape.org/) -->

<svg
   xmlns:dc="http://purl.org/dc/elements/1.1/"
   xmlns:cc="http://creativecommons.org/ns#"
   xmlns:rdf="http://www.w3.org/1999/02/22-rdf-syntax-ns#"
   xmlns:svg="http://www.w3.org/2000/svg"
   xmlns="http://www.w3.org/2000/svg"
   xmlns:sodipodi="http://sodipodi.sourceforge.net/DTD/sodipodi-0.dtd"
   xmlns:inkscape="http://www.inkscape.org/namespaces/inkscape"
   width="256"
   height="256"
   viewBox="0 0 256 256"
   id="svg2"
   version="1.1"
   inkscape:version="0.91pre4 r13712"
   sodipodi:docname="akashipy.svg"
   inkscape:export-filename="C:\Users\Amane\Desktop\akashi.py.png"
   inkscape:export-xdpi="90"
   inkscape:export-ydpi="90">
  <defs
     id="defs4" />
  <sodipodi:namedview
     id="base"
     pagecolor="#ffffff"
     bordercolor="#666666"
     borderopacity="1.0"
     inkscape:pageopacity="0.0"
     inkscape:pageshadow="2"
     inkscape:zoom="1.4"
     inkscape:cx="-88.714286"
     inkscape:cy="190.52989"
     inkscape:document-units="px"
     inkscape:current-layer="g4168"
     showgrid="false"
     units="px"
     inkscape:window-width="1600"
     inkscape:window-height="837"
     inkscape:window-x="-8"
     inkscape:window-y="-8"
     inkscape:window-maximized="1" />
  <metadata
     id="metadata7">
    <rdf:RDF>
      <cc:Work
         rdf:about="">
        <dc:format>image/svg+xml</dc:format>
        <dc:type
           rdf:resource="http://purl.org/dc/dcmitype/StillImage" />
        <dc:title />
      </cc:Work>
    </rdf:RDF>
  </metadata>
  <g
     inkscape:label="レイヤー 1"
     inkscape:groupmode="layer"
     id="layer1"
     transform="translate(0,-796.36216)">
    <g
       id="g4168"
       transform="matrix(0.6285849,0,0,0.6285849,-25.316599,688.13998)">
      <g
         id="g4183"
         transform="translate(1.6988067,-31.337015)">
        <path
           style="fill:#78ecff;fill-opacity:1;fill-rule:evenodd;stroke:#000000;stroke-width:1px;stroke-linecap:butt;stroke-linejoin:miter;stroke-opacity:1"
           d="M 474.27013,208.97995 C 329.11455,257.50686 178.38075,323.25558 60.537367,432.98369 c 0,0 -7.31617,6.72442 -4.45903,11.01014 2.85714,4.28571 19.459026,7.90791 25.887597,10.76505 6.428572,2.85714 22.142856,12.14286 22.142856,12.14286 L 75.537363,494.0446 c 0,0 -4.285714,3.57142 2.857143,8.57142 C 279.11349,476.30494 417.22591,416.03178 475.58635,381.91249 Z"
           id="path4147"
           inkscape:connector-curvature="0"
           sodipodi:nodetypes="ccssccccc" />
        <circle
           style="fill:#000000;fill-opacity:1;stroke:#ffed23;stroke-width:3.42613626;stroke-linejoin:round;stroke-miterlimit:4;stroke-dasharray:none;stroke-dashoffset:0;stroke-opacity:1"
           id="path4149"
           cx="144.82307"
           cy="411.18744"
           r="12.644074" />
        <path
           style="fill:none;fill-rule:evenodd;stroke:#000000;stroke-width:1px;stroke-linecap:butt;stroke-linejoin:miter;stroke-opacity:1"
           d="m 63.639607,430.10825 c 0,0 49.497483,22.22335 61.619313,34.34518 0,0 -25.25382,27.27412 -43.436564,38.3858"
           id="path4151"
           inkscape:connector-curvature="0"
           sodipodi:nodetypes="ccc" />
        <path
           style="fill:none;fill-rule:evenodd;stroke:#000000;stroke-width:1px;stroke-linecap:butt;stroke-linejoin:miter;stroke-opacity:1"
           d="m 256.57875,343.23512 c 0,0 34.34519,38.3858 13.13198,83.84266"
           id="path4153"
           inkscape:connector-curvature="0" />
        <path
           style="fill:none;fill-rule:evenodd;stroke:#000000;stroke-width:1px;stroke-linecap:butt;stroke-linejoin:miter;stroke-opacity:1"
           d="m 275.77165,374.54985 52.52793,-50.50763 -12.12183,56.56854 c 0,0 -13.13198,-9.09137 -28.28427,-5.05076"
           id="path4155"
           inkscape:connector-curvature="0" />
      </g>
      <g
         style="font-style:normal;font-variant:normal;font-weight:500;font-stretch:normal;font-size:40px;line-height:125%;font-family:'Noto Sans Japanese';-inkscape-font-specification:'Noto Sans Japanese, Medium';text-align:start;letter-spacing:0px;word-spacing:0px;writing-mode:lr-tb;text-anchor:start;fill:#005d6d;fill-opacity:1;stroke:none;stroke-width:1px;stroke-linecap:butt;stroke-linejoin:miter;stroke-opacity:1"
         id="text4157">
        <path
           d="m 125.71051,520.60379 q -1.74002,0.49715 -4.97148,3.23146 l -6.21436,-5.46863 q 4.47434,-3.72861 6.46293,-4.47433 3.72861,-1.49145 7.20865,-0.9943 4.97149,0.74572 7.45723,4.47434 1.24287,1.98859 1.74002,5.22005 0.49715,3.48004 0.24857,8.7001 l -0.99429,18.14592 -11.18584,0.49715 1.49144,-4.47434 q -5.22006,3.97719 -7.95437,4.72291 -4.72291,1.24287 -8.45153,-2.73432 -2.23716,-2.48574 -2.23716,-7.95437 0,-4.47434 2.48574,-8.20295 3.48004,-5.22006 8.94867,-5.96578 2.23717,-0.24857 4.97148,0.49715 1.74002,0.49715 4.22577,2.73431 0.74572,-5.22005 0.24857,-6.7115 -0.74572,-1.98859 -3.48004,-1.24287 z m -6.7115,20.63166 q 0.99429,0.74572 2.48574,0.49715 1.98859,-0.24858 3.97719,-1.49145 3.97718,-2.23717 2.48574,-5.46863 -1.24287,-1.98859 -3.48004,-1.98859 -0.9943,0 -2.98289,0.99429 -2.98289,1.49145 -3.48004,4.47434 -0.24857,1.98859 0.9943,2.98289 z"
           style="font-style:normal;font-variant:normal;font-weight:normal;font-stretch:normal;font-size:63.63499832px;font-family:HGSSoeiKakupoptai;-inkscape-font-specification:HGSSoeiKakupoptai;fill:#005d6d;fill-opacity:1"
           id="path4143" />
        <path
           d="m 152.8051,550.18412 -11.93156,-0.24857 3.23146,-51.95201 10.68869,1.49144 -1.98859,23.36598 17.40019,-17.89735 5.96578,7.95438 -12.92585,13.67158 11.93156,18.64307 -8.45153,5.7172 q -2.98289,-5.46863 -6.46292,-10.93726 -3.97719,-5.71721 -7.45723,-11.18584 l 0,21.37738 z"
           style="font-style:normal;font-variant:normal;font-weight:normal;font-stretch:normal;font-size:63.63499832px;font-family:HGSSoeiKakupoptai;-inkscape-font-specification:HGSSoeiKakupoptai;fill:#005d6d;fill-opacity:1"
           id="path4145" />
        <path
           d="m 196.30559,520.60379 q -1.74002,0.49715 -4.97149,3.23146 l -6.21435,-5.46863 q 4.47433,-3.72861 6.46293,-4.47433 3.72861,-1.49145 7.20865,-0.9943 4.97148,0.74572 7.45723,4.47434 1.24287,1.98859 1.74002,5.22005 0.49714,3.48004 0.24857,8.7001 l -0.9943,18.14592 -11.18584,0.49715 1.49145,-4.47434 q -5.22006,3.97719 -7.95438,4.72291 -4.72291,1.24287 -8.45152,-2.73432 -2.23717,-2.48574 -2.23717,-7.95437 0,-4.47434 2.48575,-8.20295 3.48003,-5.22006 8.94867,-5.96578 2.23717,-0.24857 4.97148,0.49715 1.74002,0.49715 4.22576,2.73431 0.74573,-5.22005 0.24858,-6.7115 -0.74573,-1.98859 -3.48004,-1.24287 z m -6.71151,20.63166 q 0.9943,0.74572 2.48575,0.49715 1.98859,-0.24858 3.97718,-1.49145 3.97719,-2.23717 2.48575,-5.46863 -1.24287,-1.98859 -3.48004,-1.98859 -0.9943,0 -2.98289,0.99429 -2.98289,1.49145 -3.48004,4.47434 -0.24858,1.98859 0.99429,2.98289 z"
           style="font-style:normal;font-variant:normal;font-weight:normal;font-stretch:normal;font-size:63.63499832px;font-family:HGSSoeiKakupoptai;-inkscape-font-specification:HGSSoeiKakupoptai;fill:#005d6d;fill-opacity:1"
           id="path4148" />
        <path
           d="m 213.70578,539.49543 q 2.98289,1.24287 6.46293,2.23717 1.24287,0.49715 3.72861,0.74572 1.98859,0.24857 2.48574,-0.9943 0.74573,-1.74002 -0.99429,-3.72861 -1.74002,-1.24287 -3.48004,-2.48574 -5.22006,-3.72861 -6.21436,-8.7001 -1.24287,-5.96578 2.73432,-9.94297 2.48574,-2.48574 7.95437,-3.48004 4.22576,-0.74572 8.20295,0.24858 4.97149,1.24287 6.21436,5.46863 0.74572,2.48574 -0.24858,6.21436 l -9.19724,-0.24858 q 0.24857,-5.71721 -3.23147,-5.71721 -2.98289,0 -3.23146,4.47434 -0.24858,2.73432 3.97719,5.71721 4.22576,2.98289 5.96578,4.97148 4.22576,4.72291 2.48574,10.44012 -0.9943,3.23146 -5.71721,4.72291 -2.98289,0.9943 -6.96008,0.9943 -4.72291,0 -13.17443,-1.74002 l 2.23717,-9.19725 z"
           style="font-style:normal;font-variant:normal;font-weight:normal;font-stretch:normal;font-size:63.63499832px;font-family:HGSSoeiKakupoptai;-inkscape-font-specification:HGSSoeiKakupoptai;fill:#005d6d;fill-opacity:1"
           id="path4150" />
        <path
           d="m 255.71481,549.93555 -11.18584,0.49715 2.48575,-26.59745 2.23716,-25.10599 9.6944,0.49715 -1.9886,17.89734 q 5.96579,-3.97719 10.6887,-3.23146 3.72861,0.49714 5.96578,3.72861 2.48574,3.48004 2.48574,7.95437 l 0.49715,24.36028 -10.68869,-0.24858 0.49714,-15.4116 q 0.24858,-6.21435 0,-7.45722 -0.74572,-3.48004 -2.48574,-3.97719 -2.48574,-0.74572 -4.97148,3.23146 -0.9943,1.49145 -1.9886,4.47434 -0.99429,2.98289 -1.24287,6.7115 l 0,12.67729 z"
           style="font-style:normal;font-variant:normal;font-weight:normal;font-stretch:normal;font-size:63.63499832px;font-family:HGSSoeiKakupoptai;-inkscape-font-specification:HGSSoeiKakupoptai;fill:#005d6d;fill-opacity:1"
           id="path4152" />
        <path
           d="m 292.25523,514.14086 -0.9943,36.04326 -11.43441,0 2.23717,-36.54041 10.19154,0.49715 z m -4.97148,-2.98289 q -2.98289,0 -4.47434,-1.49145 -1.74002,-1.74001 -1.74002,-4.47433 0,-3.48004 1.74002,-5.22006 1.74002,-1.74002 4.72291,-1.74002 2.98289,0 4.47434,1.49145 1.74002,1.74002 1.74002,4.97148 0,2.98289 -1.74002,4.72291 -1.74002,1.74002 -4.72291,1.74002 z"
           style="font-style:normal;font-variant:normal;font-weight:normal;font-stretch:normal;font-size:63.63499832px;font-family:HGSSoeiKakupoptai;-inkscape-font-specification:HGSSoeiKakupoptai;fill:#005d6d;fill-opacity:1"
           id="path4154" />
        <path
           d="m 300.45819,556.64705 q -0.9943,0 -2.23717,-1.24287 -1.24287,-1.24287 -1.24287,-3.72861 0,-2.48575 1.49144,-3.97719 1.24287,-1.24287 2.73432,-1.24287 1.49144,0 2.73432,1.24287 1.49144,1.49144 1.49144,3.48004 0,2.48574 -1.98859,4.47433 -0.9943,0.9943 -2.98289,0.9943 z"
           style="font-style:normal;font-variant:normal;font-weight:normal;font-stretch:normal;font-size:63.63499832px;font-family:HGSSoeiKakupoptai;-inkscape-font-specification:HGSSoeiKakupoptai;fill:#005d6d;fill-opacity:1"
           id="path4156" />
        <path
           d="m 319.34982,557.64135 -10.68869,0 5.46863,-44.49479 9.94297,0.24858 -0.49715,4.47433 q 3.97719,-4.22576 6.96008,-4.72291 3.48004,-0.49714 7.20865,2.23717 3.23147,2.48574 4.47434,6.71151 1.49144,4.97148 0,11.43441 -1.49145,6.21435 -4.97148,10.44012 -4.72291,5.7172 -9.94297,5.7172 -3.23147,0 -7.20866,-2.48574 l -0.74572,10.44012 z m 3.97719,-29.82891 q -2.23717,4.47434 -2.73432,8.94867 -0.24857,2.73432 1.49145,3.72862 1.74002,0.99429 3.48004,0.24857 2.48574,-0.9943 4.47433,-5.22006 2.48575,-5.22006 2.48575,-9.94297 0,-3.48003 -0.9943,-4.22576 -0.9943,-0.74572 -2.98289,0.24858 -2.98289,1.74002 -5.22006,6.21435 z"
           style="font-style:normal;font-variant:normal;font-weight:normal;font-stretch:normal;font-size:63.63499832px;font-family:HGSSoeiKakupoptai;-inkscape-font-specification:HGSSoeiKakupoptai;fill:#005d6d;fill-opacity:1"
           id="path4158" />
        <path
           d="m 355.39307,557.1442 2.48575,-8.20295 -12.18014,-32.56322 9.94297,-2.48574 6.96008,21.1288 6.7115,-21.37738 10.19154,0.49715 q -3.72861,10.44012 -7.20865,21.37738 -3.48004,11.43442 -6.46293,22.12311 l -10.44012,-0.49715 z"
           style="font-style:normal;font-variant:normal;font-weight:normal;font-stretch:normal;font-size:63.63499832px;font-family:HGSSoeiKakupoptai;-inkscape-font-specification:HGSSoeiKakupoptai;fill:#005d6d;fill-opacity:1"
           id="path4160" />
      </g>
    </g>
  </g>
</svg>
